<?xml version="1.0" encoding="utf-8"?>
<!-- Svg Vector Icons : http://www.onlinewebfonts.com/icon -->
<!DOCTYPE svg PUBLIC "-//W3C//DTD SVG 1.1//EN" "http://www.w3.org/Graphics/SVG/1.1/DTD/svg11.dtd">
<svg version="1.1" xmlns="http://www.w3.org/2000/svg" xmlns:xlink="http://www.w3.org/1999/xlink" x="0px" y="0px" viewBox="0 0 1000 1000" enable-background="new 0 0 1000 1000" xml:space="preserve">
<metadata> Svg Vector Icons : http://www.onlinewebfonts.com/icon </metadata>
<g><g transform="translate(0.000000,511.000000) scale(0.100000,-0.100000)"><path d="M4424.2,4987.9c-244.1-56.3-392.2-164.8-390.1-290c0-35.5,2.1-258.7,4.2-494.4c6.3-427.6-16.7-661.3-87.6-928.3c-25-91.8-33.4-104.3-79.3-96c-27.1,4.2-166.9,8.3-310.8,10.4c-258.7,2.1-260.8,2.1-417.2-73c-85.5-41.7-214.9-127.3-285.8-191.9c-177.3-158.5-210.7-175.2-233.6-114.7c-14.6,39.6-2.1,56.3,81.4,123.1c273.3,214.9,417.2,509,417.2,849c0,264.9-58.4,421.4-156.5,421.4c-66.8,0-285.8-152.3-385.9-267c-98.1-114.7-196.1-304.6-233.6-452.7c-14.6-56.3-27.1-108.5-31.3-112.6c-2.1-4.2-37.5,20.9-77.2,56.3c-181.5,158.5-342.1,208.6-396.4,125.2c-31.3-52.2,2.1-98,125.2-169c173.1-102.2,331.7-275.4,373.4-411c8.3-29.2,39.6-102.2,66.8-164.8c62.6-133.5,56.3-139.8-139.8-158.5c-75.1-6.3-183.6-20.9-242-31.3c-452.7-79.3-840.7-584.1-842.8-1093.1v-121l-75.1,66.8c-79.3,68.8-146,75.1-181.5,18.8c-27.1-43.8,498.6-6210.2,531.9-6249.9c31.3-39.6,7053-39.6,7084.3,0c33.4,39.6,559.1,6208.1,532,6249.9c-52.1,81.4-106.4,54.2-340-175.2l-225.3-223.2l58.4,198.2C8946.8,2566,8878,3711.2,8391.9,4193.1c-244.1,242-517.3,310.8-872,221.1c-544.5-139.8-1180.7-703-1696-1502c-114.7-177.3-104.3-185.7-206.5,127.3c-137.7,406.8-160.6,571.6-173.1,1180.7l-12.5,548.6l-81.4,70.9c-127.2,108.5-298.3,158.5-569.5,169C4630.8,5012.9,4507.7,5006.7,4424.2,4987.9z M5135.6,4777.2c158.5-79.3,85.5-143.9-206.5-179.4c-302.5-37.5-680.1,27.1-680.1,116.8c0,77.2,177.3,114.7,521.5,108.5C5002.1,4818.9,5066.8,4810.6,5135.6,4777.2z M4564,4393.4c208.6-27.1,456.8,2.1,630,70.9c31.3,12.5,35.5,0,35.5-110.6v-125.2l-98.1-39.6c-152.3-58.4-690.5-54.2-809.4,4.2c-81.4,39.6-83.4,43.8-89.7,160.6l-6.3,118.9l85.5-29.2C4359.6,4426.8,4472.2,4403.8,4564,4393.4z M8035.2,4222.3c158.5-58.4,335.8-233.6,423.5-415.1c225.3-475.6,244.1-1166.1,54.2-2019.3c-52.2-233.6-258.7-899.1-300.4-963.8c-16.7-25-93.9,43.8-390.1,340c-277.4,275.4-383.8,369.2-421.4,369.2c-39.6,0-148.1-96-429.7-375.5l-377.6-375.5L6364.3,1016l-231.6,235.7l-2.1,400.5c0,306.6-8.3,431.8-35.5,521.5c-39.6,141.9-110.6,267-185.7,337.9c-29.2,29.2-54.2,64.7-54.2,81.4c0,16.7,79.3,148.1,175.2,294.1C6721,3930.3,7474.1,4433,8035.2,4222.3z M5292,3636.1c43.8-371.3,204.4-890.7,327.5-1061.8c31.3-45.9,68.8-98,79.3-118.9c12.5-20.9,45.9-68.8,77.2-110.6c121-156.5,148.1-256.6,158.5-569.5l10.4-287.9l-54.2,35.5c-29.2,18.8-68.9,31.3-85.5,27.1c-16.7-4.2-206.5-175.2-419.3-379.7L4995.8,797l-123.1,125.2l-125.2,123.1l52.2,156.5c141.9,421.4,96,890.7-123.1,1280.8c-91.8,166.9-310.8,402.6-471.5,513.2l-118.9,79.3l39.6,148.1c50.1,194,102.2,546.6,102.2,698.8c0,114.7,2.1,118.9,48,106.4c312.9-89.7,621.7-96,849-18.8l114.7,37.5l14.6-104.3C5260.8,3886.5,5277.4,3748.8,5292,3636.1z M2945.2,3861.4c33.4-262.8-70.9-536.1-275.4-721.8c-112.6-102.2-121-106.4-148.1-70.9c-20.9,29.2-27.1,89.7-20.9,227.4c8.3,152.3,20.9,210.7,68.8,312.9c60.5,127.3,277.4,365.1,333.8,365.1C2922.3,3974.1,2936.9,3936.5,2945.2,3861.4z M3904.8,2943.6c582-273.3,903.3-976.3,728-1595.8l-35.5-129.3l-171.1,169c-93.9,91.8-189.8,166.9-210.7,166.9c-22.9,0-139.8-100.1-269.1-231.6c-127.3-127.3-302.5-296.2-392.2-377.6L3391.6,797l-365.1,379.7c-246.2,252.4-381.7,377.6-411,377.6c-29.2,0-171.1-127.3-421.4-375.5c-206.5-206.5-385.9-375.5-398.4-375.5s-110.6,91.8-221.1,204.4L1376.5,1210l-12.5,131.4c-48,465.2,198.2,913.7,584.1,1066c60.5,22.9,187.7,48,281.6,56.3c164.8,12.5,171.1,10.4,127.2-22.9c-56.3-39.6-60.5-87.6-12.5-139.8c41.7-45.9,85.5-48,246.2-6.3c139.8,37.5,310.8,137.7,358.8,212.8c43.8,64.7,8.3,152.3-60.5,152.3c-39.6,0-27.1,18.8,77.2,114.7C3258.1,3039.5,3579.4,3097.9,3904.8,2943.6z M2538.4,2493c0-10.4-31.3-20.9-66.8-18.8c-64.7,2.1-66.8,2.1-16.7,18.8C2528,2515.9,2538.4,2515.9,2538.4,2493z M2986.9,928.4C3216.4,699,3377,552.9,3402.1,552.9c25,0,189.8,148.1,423.5,379.7l383.8,381.7l375.5-381.7c206.5-208.6,392.2-379.7,410.9-379.7c20.9,0,210.7,166.9,421.4,373.4l385.9,371.3l358.8-369.2c198.2-204.4,381.7-375.5,406.8-381.7c39.6-10.4,108.5,48,440.2,377.6l392.2,390.1l379.7-392.2c208.6-214.9,392.2-390.1,408.9-390.1c16.7,0,179.4,148.1,360.9,327.5c275.4,273.3,329.6,319.2,329.6,277.4c0-29.2-108.5-1308-239.9-2843.3c-131.4-1535.4-239.9-2814.1-239.9-2843.3v-50.1H5000H1599.7v48c0,27.1-108.5,1305.9-239.9,2841.2c-131.4,1535.4-239.9,2816.2-239.9,2845.4c0,43.8,45.9,6.3,319.2-264.9c183.6-181.5,335.9-317.1,358.8-317.1S1994,709.4,2213,928.4c208.6,206.5,381.8,375.5,388,375.5S2780.4,1134.9,2986.9,928.4z"/><path d="M7015.1,3127.1c-48-45.9-41.7-106.4,14.6-143.9c81.4-52.1,367.2-114.7,523.6-114.7c252.4,0,561.1,89.7,582,169c6.3,22.9-6.3,60.5-27.1,85.5l-35.5,45.9l-164.8-50.1c-221.1-68.8-502.7-68.8-690.5-4.2C7063.1,3168.9,7056.9,3168.9,7015.1,3127.1z"/><path d="M6422.7,2248.9c-45.9-18.8-70.9-85.5-45.9-129.3c52.2-98,454.8-196.1,813.6-196.1c467.3-2.1,884.5,139.8,801.1,273.3c-35.5,54.2-93.9,54.2-283.7-6.3c-317.1-102.2-715.5-100.1-1036.8,0c-98,31.3-185.6,58.4-198.2,62.6C6460.2,2257.3,6437.3,2255.2,6422.7,2248.9z"/></g></g>
</svg>